<?xml version="1.0" encoding="UTF-8" standalone="no"?>
<svg xmlns="http://www.w3.org/2000/svg" id="svg3946" version="1.2" viewBox="0 0 1300 300" height="400" width="1300pt">
    <g id="surface7150">
        <path id="path3699" d="M162.453 182.414l-40.617-49.16 58.727.57zm0 0" fill="#2d7bc8"/>
        <path id="path3701" d="M121.836 133.254l78.309-51.988-19.583 52.558zm0 0" fill="#1266ac"/>
        <path id="path3703" d="M200.148 81.266l25.192 90.558-62.887 10.594zm0 0" fill="#1c4f9c"/>
        <path id="path3705" d="M121.04 132.34l24.132-41.149 26.754 7.258zm0 0" fill="#2f97da"/>
        <path id="path3707" d="M173.344 97.605l26.945-18.476-21.598-23.426-32.582 34.262zm0 0" fill="#2857af"/>
        <path id="path3709" d="M144.941 88.172l6.153-25.192 15.812 2.094zm0 0" fill="#747ac5"/>
        <path id="path3711" d="M168.328 63.023l10.613-11.164-12.398-10.293-14.027 19.364zm0 0" fill="#1574c4"/>
        <path id="path3713" d="M150.945 58.68l1.39-13.04 8.067-.011zm0 0" fill="#5e83cb"/>
        <path id="path3715" d="M161.453 42.691l4.57-6.308-6.906-4.324-5.73 10.644zm0 0" fill="#2d9edf"/>
        <path id="path3717" d="M151.02 39.547l-.18-6.629 4.043-.55zm0 0" fill="#83c2ec"/>
        <path id="path3719" d="M154.195 29.75l1.868-3.469-3.754-1.707-2.157 5.723zm0 0" fill="#1a64b7"/>
        <path id="path3721" d="M149.516 21.39l-4.993-.804 2.832 6.523zm0 0" fill="#5581ca"/>
        <path id="path3723" d="M162.453 182.414l-22.266 59.758-28.87-51.14zm0 0" fill="#73cd97"/>
        <path id="path3725" d="M140.188 242.172l-84.18-41.824 55.308-9.317zm0 0" fill="#a3dc8d"/>
        <path id="path3727" d="M56.008 200.344l65.832-67.094 40.613 49.164zm0 0" fill="#50ab7c"/>
        <path id="path3729" d="M139.797 243.32l-47.707-.324-7.09-26.8zm0 0" fill="#b1cf8c"/>
        <path id="path3731" d="M83.563 215.39L54.09 201.298l-9.492 30.414 45.96 11.086zm0 0" fill="#73cd97"/>
        <path id="path3733" d="M89.594 244.703l-24.895 7.27-6.09-14.743zm0 0" fill="#69cbb4"/>
        <path id="path3735" d="M56.117 237.027l-14.972-3.609-2.715 15.879 23.78 2.469zm0 0" fill="#87d5b4"/>
        <path id="path3737" d="M61.047 254.25l-11.988 5.313-4.043-6.977zm0 0" fill="#1ab19e"/>
        <path id="path3739" d="M41.95 253.145l-7.75-.805-.29 8.144 12.082-.363zm0 0" fill="#00a363"/>
        <path id="path3741" d="M44.441 263.754l-5.652 3.469-2.496-3.227zm0 0" fill="#008b7e"/>
        <path id="path3743" d="M34.367 265.902l-3.937.118.402 4.101 6.031-.992zm0 0" fill="#1ab19e"/>
        <path id="path3745" d="M29.469 274.137l1.8 4.722 4.235-5.714zm0 0" fill="#00a363"/>
        <path id="path3747" d="M162.453 182.414l62.887-10.59-29.86 50.57zm0 0" fill="#f46a25"/>
        <path id="path3749" d="M225.34 171.824l5.867 93.809-35.727-43.238zm0 0" fill="#ef2e31"/>
        <path id="path3751" d="M231.207 265.633l-91.023-23.461 22.27-59.758zm0 0" fill="#d2103e"/>
        <path id="path3753" d="M226.527 171.586l23.57 41.476-19.66 19.543zm0 0" fill="#f46a25"/>
        <path id="path3755" d="M230.453 234.25l2.531 32.574 31.086-6.988-13.379-45.348zm0 0" fill="#f03c2e"/>
        <path id="path3757" d="M252.828 214.371l18.738 17.926-9.718 12.644zm0 0" fill="#c60d42"/>
        <path id="path3759" d="M262.914 247.2l4.363 14.773 15.11-5.59-9.754-21.832zm0 0" fill="#ef2e31"/>
        <path id="path3761" d="M275.367 234.32l10.598 7.727-4.024 6.988zm0 0" fill="#f36018"/>
        <path id="path3763" d="M283.957 251.41l3.176 7.113 7.203-3.82-6.36-10.281zm0 0" fill="#e20f4d"/>
        <path id="path3765" d="M291.898 243.95l5.832 3.16-1.546 3.773zm0 0" fill="#ee2922"/>
        <path id="path3767" d="M298.797 251.598l2.07 3.351 3.352-2.398-3.875-4.727zm0 0" fill="#f36917"/>
        <path id="path3769" d="M308.379 251.723l3.187-3.918-7.066-.809zm0 0" fill="#ed1345"/>
        <path id="path3771" d="M353.11 67.129h40.745v3.644h-18.468v53.508h-3.805V70.773h-18.473zm0 0"/>
        <path id="path3773" d="M408.684 67.129h3.882v57.152h-3.882zm0 0"/>
        <path id="path3775" d="M430.164 67.129h33.848l-1.664 3.566h-28.38V93.13h25.052v3.566h-25.051v24.02h29.172l1.347 3.566h-34.324zm0 0"/>
        <path id="path3777" d="M475.273 67.129h40.743v3.644h-18.47v53.508h-3.804V70.773h-18.469zm0 0"/>
        <path id="path3779" d="M530.05 67.129h33.848l-1.664 3.566h-28.379V93.13h25.051v3.566h-25.05v24.02h29.171l1.348 3.566h-34.324zm0 0"/>
        <path id="path3781" d="M577.93 67.129h33.851l-1.668 3.566h-28.375V93.13h25.047v3.566h-25.047v24.02h29.168l1.348 3.566H577.93zm0 0"/>
        <path id="path3783" d="M626.29 67.129h5.39l33.293 52v-52h3.882v57.152h-4.835l-33.926-52.875v52.875h-3.805zm0 0"/>
        <path id="path3785" d="M712.625 67.129h40.746v3.644h-18.469v53.508h-3.804V70.773h-18.473zm0 0"/>
        <path id="path3787" d="M767.406 67.129h33.848l-1.664 3.566h-28.38V93.13h25.048v3.566H771.21v24.02h29.172l1.344 3.566h-34.32zm0 0"/>
        <path id="path3789" d="M819.328 70.379v23.144h17.598c9.039 0 14.984-4.597 14.984-11.652 0-6.5-5.71-11.492-13.238-11.492zm-3.883-3.25h23.227c10.144 0 17.121 6.023 17.121 14.82 0 4.203-1.742 7.93-5.074 10.703-2.059 1.743-3.489 2.457-7.293 3.567l14.191 28.062h-3.887l-14.03-27.43h-20.372v27.43h-3.883zm0 0"/>
        <path id="path3791" d="M870.7 67.129h6.577l19.977 49.777 20.055-49.777h6.5v57.152h-3.883V69.664l-21.719 54.617h-1.824l-21.88-54.222v54.222H870.7zm0 0"/>
        <path id="path3793" d="M940.695 67.129h3.887v57.152h-3.887zm0 0"/>
        <path id="path3795" d="M965.746 70.379v25.523h15.777c9.668 0 15.38-4.757 15.38-12.922 0-7.53-5.63-12.601-13.876-12.601zm-3.805-3.25h21.407c10.382 0 17.515 6.578 17.515 16.012 0 9.988-6.816 16.011-18.152 16.011h-16.965v25.13h-3.805zm0 0"/>
        <path id="path3797" d="M1028.863 71.012l-14.191 34.164h28.379zm-2.3-3.883h4.519l23.621 57.152h-3.726l-6.579-15.695h-31.152l-6.578 15.695h-3.809zm0 0"/>
        <path id="path3799" d="M1065.426 67.129h5.39l33.293 52v-52h3.883v57.152h-4.836l-33.926-52.875v52.875h-3.804zm0 0"/>
        <path id="path3801" d="M1128.29 67.129h3.804v30.836l32.66-30.836h5.23l-21.086 19.894 23.07 37.258h-4.042l-21.723-34.722-14.11 13.32v21.402h-3.804zm0 0"/>
        <path id="path3803" d="M1188.54 67.129h3.804v30.836l32.66-30.836h5.23l-21.086 19.894 23.07 37.258h-4.042l-21.723-34.722-14.11 13.32v21.402h-3.804zm0 0"/>
        <path id="path3805" d="M1246.488 67.129h3.883v57.152h-3.883zm0 0"/>
        <path id="path3807" d="M360.598 154.934h1.492l7.387 21.261 7.328-21.261h1.52L370.32 178.3h-1.62zm0 0"/>
        <path id="path3809" d="M383.188 154.934h13.84l-.68 1.457h-11.602v9.172h10.238v1.46h-10.238v9.82h11.926l.55 1.458h-14.034zm0 0"/>
        <path id="path3811" d="M401.309 154.934h16.656v1.488h-7.55V178.3h-1.556v-21.88h-7.55zm0 0"/>
        <path id="path3813" d="M423.379 154.934h13.84l-.68 1.457h-11.601v9.172h10.238v1.46h-10.238v9.82h11.925l.551 1.458H423.38zm0 0"/>
        <path id="path3815" d="M442.828 154.934h2.203l13.614 21.261v-21.261h1.585V178.3h-1.976l-13.871-21.617V178.3h-1.555zm0 0"/>
        <path id="path3817" d="M466.875 172.016c.648 1.78 2.3 5.539 7.617 5.539 3.856 0 6.578-2.14 6.578-5.22 0-3.108-3.273-4.6-6.902-5.862-3.145-1.106-7.195-2.528-7.195-6.516 0-3.434 2.691-5.543 7.097-5.543 4.442 0 6.258 2.367 7.618 4.18l-1.102 1.523c-.649-1.23-2.367-4.34-6.352-4.34-3.437 0-5.609 1.653-5.609 4.246 0 2.008 1.492 3.207 6.258 4.891 4.504 1.621 7.875 3.277 7.875 7.23 0 4.114-3.403 6.903-8.363 6.903-5.606 0-8.266-4.313-8.848-5.996zm0 0"/>
        <path id="path3819" d="M489.145 154.934h1.554v12.605l13.352-12.605h2.14l-8.62 8.136L507 178.3h-1.652l-8.88-14.195-5.769 5.446v8.75h-1.554zm0 0"/>
        <path id="path3821" d="M521.102 156.523l-5.801 13.97h11.601zm-.942-1.59h1.848l9.66 23.368h-1.523l-2.692-6.418h-12.738l-2.688 6.418h-1.554zm0 0"/>
        <path id="path3823" d="M536.668 156.262v10.437h6.45c3.952 0 6.284-1.945 6.284-5.285 0-3.078-2.3-5.152-5.672-5.152zm-1.559-1.328h8.754c4.242 0 7.16 2.687 7.16 6.546 0 4.083-2.785 6.547-7.421 6.547h-6.934v10.274h-1.559zm0 0"/>
        <path id="path3825" d="M556.082 172.016c.648 1.78 2.3 5.539 7.613 5.539 3.86 0 6.582-2.14 6.582-5.22 0-3.108-3.273-4.6-6.902-5.862-3.145-1.106-7.195-2.528-7.195-6.516 0-3.434 2.687-5.543 7.097-5.543 4.438 0 6.254 2.367 7.618 4.18l-1.106 1.523c-.648-1.23-2.363-4.34-6.351-4.34-3.434 0-5.606 1.653-5.606 4.246 0 2.008 1.488 3.207 6.254 4.891 4.504 1.621 7.875 3.277 7.875 7.23 0 4.114-3.402 6.903-8.36 6.903-5.609 0-8.265-4.313-8.847-5.996zm0 0"/>
        <path id="path3827" d="M575.95 154.934h16.66v1.488h-7.551V178.3H583.5v-21.88h-7.55zm0 0"/>
        <path id="path3829" d="M598.023 154.934h13.836l-.68 1.457h-11.6v9.172h10.241v1.46h-10.242v9.82h11.926l.55 1.458h-14.03zm0 0"/>
        <path id="path3831" d="M618.926 156.262v9.465h7.195c3.695 0 6.125-1.883 6.125-4.766 0-2.656-2.332-4.7-5.41-4.7zm-1.586-1.328h9.496c4.148 0 7 2.464 7 6.058 0 1.719-.715 3.242-2.074 4.375-.844.715-1.426 1.008-2.98 1.461l5.8 11.473h-1.59l-5.734-11.215h-8.332V178.3h-1.586zm0 0"/>
        <path id="path3833" d="M639.605 154.934h2.692l8.168 20.355 8.2-20.355h2.655V178.3h-1.586v-22.332l-8.882 22.332h-.747l-8.94-22.168V178.3h-1.56zm0 0"/>
        <path id="path3835" d="M669.328 166.406v10.567h7.55c3.763 0 6.29-2.043 6.29-5.121 0-3.434-3.113-5.446-8.363-5.446zm0-10.176v8.848h5.867c4.114 0 7-1.879 7-4.601 0-2.66-2.27-4.247-5.996-4.247zm-1.555-1.296h8.457c4.7 0 7.52 2.007 7.52 5.379 0 3.859-3.531 4.863-5.477 5.445 1.75.324 2.625.586 3.5 1.039 1.88 1.004 3.012 2.883 3.012 5.02 0 2.14-1.262 6.484-7.742 6.484h-9.27zm0 0"/>
        <path id="path3837" d="M698.473 156.523l-5.801 13.97h11.601zm-.938-1.59h1.844l9.66 23.368h-1.523l-2.692-6.418H692.09l-2.692 6.418h-1.554zm0 0"/>
        <path id="path3839" d="M713.098 154.934h2.203l13.613 21.261v-21.261h1.59V178.3h-1.977l-13.87-21.617V178.3h-1.56zm0 0"/>
        <path id="path3841" d="M738.477 154.934h1.554v12.605l13.352-12.605h2.14l-8.62 8.136 9.433 15.23h-1.656l-8.88-14.195-5.769 5.446v8.75h-1.554zm0 0"/>
        <path id="path3843" d="M761.523 154.934h13.84l-.683 1.457h-11.602v9.172h10.242v1.46h-10.242v9.82h11.926l.55 1.458h-14.03zm0 0"/>
        <path id="path3845" d="M780.969 154.934h2.203l13.613 21.261v-21.261h1.59V178.3h-1.977l-13.87-21.617V178.3h-1.56zm0 0"/>
        <path id="path3847" d="M813.188 154.934h1.585V178.3h-1.586zm0 0"/>
        <path id="path3849" d="M829.004 154.934h12.836l-.262 1.457h-11.02v9.203h9.563v1.46h-9.562v11.247h-1.555zm0 0"/>
        <path id="path3851" d="M846.96 154.934h1.587V178.3h-1.586zm0 0"/>
        <path id="path3853" d="M855.613 154.934h2.203l13.614 21.261v-21.261h1.586V178.3h-1.977l-13.871-21.617V178.3h-1.555zm0 0"/>
        <path id="path3855" d="M880.086 154.934h1.586v21.972h10.957v1.395h-12.543zm0 0"/>
        <path id="path3857" d="M905.852 156.523l-5.801 13.97h11.601zm-.942-1.59h1.848l9.66 23.368h-1.523l-2.692-6.418h-12.738l-2.688 6.418h-1.558zm0 0"/>
        <path id="path3859" d="M920.477 154.934h2.203l13.613 21.261v-21.261h1.586V178.3h-1.977l-13.87-21.617V178.3h-1.555zm0 0"/>
        <path id="path3861" d="M946.504 156.328v20.516h5.64c3.305 0 5.344-.715 7-2.399 1.684-1.75 2.59-4.41 2.59-7.554 0-3.403-1.004-6.383-2.754-8.133-1.585-1.621-3.793-2.43-6.707-2.43zm-1.59-1.394h8.04c6.32 0 10.401 4.73 10.401 12.12 0 3.598-1.07 6.45-3.144 8.493-1.977 1.91-4.438 2.754-8.266 2.754h-7.03zm0 0"/>
        <path id="path3863" d="M364 215.023v10.567h7.555c3.757 0 6.285-2.043 6.285-5.121 0-3.434-3.11-5.446-8.36-5.446zm0-10.175v8.847h5.867c4.117 0 7-1.879 7-4.601 0-2.66-2.27-4.246-5.996-4.246zm-1.555-1.297h8.457c4.703 0 7.52 2.008 7.52 5.379 0 3.86-3.531 4.863-5.477 5.445 1.75.324 2.625.586 3.5 1.04 1.88 1.003 3.016 2.882 3.016 5.023 0 2.14-1.266 6.48-7.746 6.48h-9.27zm0 0"/>
        <path id="path3865" d="M393.145 205.14l-5.801 13.97h11.601zm-.938-1.59h1.848l9.656 23.368h-1.524l-2.69-6.418h-12.735l-2.692 6.418h-1.554zm0 0"/>
        <path id="path3867" d="M407.773 203.55h2.204l13.609 21.262v-21.261h1.59v23.367h-1.977l-13.87-21.617v21.617h-1.556zm0 0"/>
        <path id="path3869" d="M433.152 203.55h1.555v12.61l13.352-12.61h2.14l-8.62 8.137 9.429 15.231h-1.653l-8.882-14.195-5.766 5.445v8.75h-1.555zm0 0"/>
        <path id="path3871" d="M481.54 215.61c0-6.81-3.435-11.184-8.813-11.184-5.122 0-8.528 4.375-8.528 10.86 0 6.448 3.535 10.984 8.528 10.984 7.582 0 8.812-8.004 8.812-10.66m-18.992-.294c0-7.226 4.246-12.347 10.308-12.347 6.06 0 10.305 5.152 10.305 12.543 0 7.066-4.344 12.187-10.305 12.187-5.996 0-10.308-5.187-10.308-12.383"/>
        <path id="path3873" d="M487.863 203.55h12.832l-.257 1.462h-11.02v9.203h9.562v1.457h-9.562v11.246h-1.555zm0 0"/>
        <path id="path3875" d="M512.852 203.55h12.832l-.258 1.462h-11.02v9.203h9.563v1.457h-9.563v11.246h-1.554zm0 0"/>
        <path id="path3877" d="M530.809 203.55h1.586v23.368h-1.586zm0 0"/>
        <path id="path3879" d="M539.46 203.55h2.204l13.613 21.262v-21.261h1.586v23.367h-1.976l-13.871-21.617v21.617h-1.555zm0 0"/>
        <path id="path3881" d="M563.77 203.55h2.203l13.613 21.262v-21.261h1.586v23.367h-1.977l-13.87-21.617v21.617h-1.555zm0 0"/>
        <path id="path3883" d="M588.207 203.55h1.59v23.368h-1.59zm0 0"/>
        <path id="path3885" d="M596.602 220.633c.648 1.781 2.3 5.539 7.617 5.539 3.855 0 6.578-2.137 6.578-5.219 0-3.11-3.274-4.598-6.902-5.863-3.145-1.102-7.196-2.528-7.196-6.516 0-3.433 2.692-5.543 7.098-5.543 4.441 0 6.258 2.367 7.617 4.184l-1.101 1.523c-.649-1.234-2.368-4.343-6.352-4.343-3.438 0-5.61 1.652-5.61 4.246 0 2.007 1.493 3.207 6.258 4.894 4.504 1.617 7.875 3.274 7.875 7.227 0 4.113-3.402 6.902-8.363 6.902-5.605 0-8.266-4.309-8.848-5.996zm0 0"/>
        <path id="path3887" d="M617.8 203.55h1.555v10.598h14.262v-10.597h1.555v23.367h-1.555v-11.309h-14.262v11.309h-1.554zm0 0"/>
        <path id="path3889" d="M644.348 203.55h16.66v1.493h-7.551v21.875h-1.555v-21.875h-7.554zm0 0"/>
        <path id="path3891" d="M666.422 203.55h13.84l-.684 1.462h-11.601v9.172h10.242v1.457h-10.242v9.82h11.925l.551 1.457h-14.031zm0 0"/>
        <path id="path3893" d="M687.328 204.883v9.46h7.195c3.696 0 6.125-1.878 6.125-4.765 0-2.656-2.336-4.695-5.414-4.695zm-1.59-1.332h9.496c4.149 0 7 2.465 7 6.062 0 1.715-.71 3.242-2.074 4.375-.84.711-1.426 1.004-2.98 1.457l5.8 11.473h-1.585l-5.739-11.215h-8.328v11.215h-1.59zm0 0"/>
        <path id="path3895" d="M708.008 203.55h2.687l8.168 20.356 8.2-20.355h2.66v23.367h-1.59V204.59l-8.883 22.328h-.742l-8.946-22.168v22.168h-1.554zm0 0"/>
        <path id="path3897" d="M736.3 203.55h1.59v23.368h-1.59zm0 0"/>
        <path id="path3899" d="M744.957 203.55h2.203l13.613 21.262v-21.261h1.586v23.367h-1.976l-13.871-21.617v21.617h-1.555zm0 0"/>
        <path id="path3901" d="M786.637 215.61c0-6.81-3.438-11.184-8.817-11.184-5.12 0-8.523 4.375-8.523 10.86 0 6.448 3.531 10.984 8.523 10.984 7.586 0 8.817-8.004 8.817-10.66m-18.992-.294c0-7.226 4.246-12.347 10.304-12.347 6.063 0 10.309 5.152 10.309 12.543 0 7.066-4.344 12.187-10.309 12.187-5.996 0-10.304-5.187-10.304-12.383"/>
        <path id="path3903" d="M793.734 203.55h1.59v21.977h10.957v1.391h-12.547zm0 0"/>
        <path id="path3905" d="M828.156 215.61c0-6.81-3.437-11.184-8.816-11.184-5.121 0-8.524 4.375-8.524 10.86 0 6.448 3.532 10.984 8.524 10.984 7.586 0 8.816-8.004 8.816-10.66m-18.992-.294c0-7.226 4.246-12.347 10.305-12.347 6.062 0 10.308 5.152 10.308 12.543 0 7.066-4.343 12.187-10.308 12.187-5.996 0-10.305-5.187-10.305-12.383"/>
        <path id="path3907" d="M851.656 222.996c-1.136 1.914-2.886 4.7-8.039 4.7-5.734 0-10.047-5.122-10.047-11.926 0-7.489 4.215-12.77 10.114-12.77 5.445 0 7.355 3.727 7.777 4.926l-1.07 1.199c-1.262-3.145-3.145-4.664-6.645-4.664-5.055 0-8.488 4.566-8.488 11.246 0 6.352 3.465 10.531 8.781 10.531 2.723 0 4.473-1.101 6.059-3.34v-5.41h-8.262v-1.492h9.82zm0 0"/>
        <path id="path3909" d="M856.258 203.55h1.652l6.613 10.794 7-10.793h1.684l-7.969 12.219v11.148h-1.59v-11.277zm0 0"/>
        <path id="path3911" d="M886.563 203.55h1.59v23.368h-1.59zm0 0"/>
        <path id="path3913" d="M895.219 203.55h2.203l13.613 21.262v-21.261h1.586v23.367h-1.976l-13.872-21.617v21.617h-1.554zm0 0"/>
        <path id="path3915" d="M934.73 205.14l-5.8 13.97h11.605zm-.937-1.59h1.848l9.656 23.368h-1.52l-2.691-6.418h-12.738l-2.688 6.418h-1.558zm0 0"/>
        <path id="path3917" d="M950.816 204.883v9.46h7.196c3.695 0 6.125-1.878 6.125-4.765 0-2.656-2.332-4.695-5.414-4.695zm-1.59-1.332h9.497c4.152 0 7.004 2.465 7.004 6.062 0 1.715-.715 3.242-2.075 4.375-.843.711-1.43 1.004-2.98 1.457l5.797 11.473h-1.586l-5.738-11.215h-8.329v11.215h-1.59zm0 0"/>
        <path id="path3919" d="M970.012 203.55h16.66v1.493h-7.55v21.875h-1.556v-21.875h-7.554zm0 0"/>
        <path id="path3921" d="M992.02 220.633c.648 1.781 2.3 5.539 7.617 5.539 3.855 0 6.578-2.137 6.578-5.219 0-3.11-3.274-4.598-6.903-5.863-3.144-1.102-7.195-2.528-7.195-6.516 0-3.433 2.692-5.543 7.098-5.543 4.441 0 6.254 2.367 7.617 4.184l-1.102 1.523c-.648-1.234-2.367-4.343-6.355-4.343-3.434 0-5.605 1.652-5.605 4.246 0 2.007 1.492 3.207 6.257 4.894 4.504 1.617 7.875 3.274 7.875 7.227 0 4.113-3.402 6.902-8.363 6.902-5.605 0-8.266-4.309-8.848-5.996zm0 0"/>
        <path id="path3923" d="M1028.422 205.14l-5.8 13.97h11.605zm-.938-1.59h1.848l9.656 23.368h-1.52l-2.69-6.418h-12.739l-2.687 6.418h-1.559zm0 0"/>
        <path id="path3925" d="M1043.05 203.55h2.204l13.613 21.262v-21.261h1.586v23.367h-1.976l-13.872-21.617v21.617h-1.554zm0 0"/>
        <path id="path3927" d="M1069.078 204.945v20.516h5.64c3.305 0 5.344-.715 7-2.399 1.684-1.75 2.59-4.406 2.59-7.55 0-3.407-1.003-6.387-2.753-8.137-1.586-1.617-3.793-2.43-6.707-2.43zm-1.59-1.394h8.04c6.32 0 10.402 4.734 10.402 12.12 0 3.599-1.07 6.45-3.145 8.493-1.976 1.914-4.437 2.754-8.265 2.754h-7.032zm0 0"/>
        <path id="path3929" d="M1099.188 220.633c.648 1.781 2.3 5.539 7.617 5.539 3.855 0 6.578-2.137 6.578-5.219 0-3.11-3.274-4.598-6.903-5.863-3.144-1.102-7.195-2.528-7.195-6.516 0-3.433 2.688-5.543 7.098-5.543 4.441 0 6.254 2.367 7.617 4.184l-1.102 1.523c-.648-1.234-2.367-4.343-6.355-4.343-3.434 0-5.605 1.652-5.605 4.246 0 2.007 1.488 3.207 6.253 4.894 4.508 1.617 7.875 3.274 7.875 7.227 0 4.113-3.402 6.902-8.359 6.902-5.61 0-8.266-4.309-8.848-5.996zm0 0"/>
        <path id="path3931" d="M1137.629 222.414c-.324 1.137-3.309 5.281-8.59 5.281-5.836 0-10.21-4.05-10.21-12.12 0-7.516 3.952-12.606 9.82-12.606 5.378 0 7.843 3.5 8.492 5.023l-1.07.942c-.778-1.461-2.919-4.54-7.294-4.54-4.988 0-8.261 4.344-8.261 11.02 0 6.871 3.109 10.824 8.554 10.824 5.059 0 6.809-3.5 7.453-4.925zm0 0"/>
        <path id="path3933" d="M1143.14 203.55h1.587v23.368h-1.586zm0 0"/>
        <path id="path3935" d="M1151.598 203.55h13.84l-.684 1.462h-11.602v9.172h10.243v1.457h-10.243v9.82h11.926l.55 1.457h-14.03zm0 0"/>
        <path id="path3937" d="M1171.043 203.55h2.207l13.61 21.262v-21.261h1.59v23.367h-1.977l-13.871-21.617v21.617h-1.559zm0 0"/>
        <path id="path3939" d="M1212.594 222.414c-.32 1.137-3.305 5.281-8.586 5.281-5.836 0-10.211-4.05-10.211-12.12 0-7.516 3.953-12.606 9.82-12.606 5.38 0 7.844 3.5 8.492 5.023l-1.07.942c-.777-1.461-2.918-4.54-7.293-4.54-4.988 0-8.262 4.344-8.262 11.02 0 6.871 3.11 10.824 8.555 10.824 5.055 0 6.805-3.5 7.453-4.925zm0 0"/>
        <path id="path3941" d="M1217.781 203.55h13.84l-.68 1.462h-11.601v9.172h10.242v1.457h-10.242v9.82h11.926l.55 1.457h-14.035zm0 0"/>
        <path id="path3943" d="M1236.969 220.633c.648 1.781 2.304 5.539 7.617 5.539 3.86 0 6.578-2.137 6.578-5.219 0-3.11-3.27-4.598-6.902-5.863-3.145-1.102-7.196-2.528-7.196-6.516 0-3.433 2.692-5.543 7.098-5.543 4.441 0 6.254 2.367 7.617 4.184l-1.101 1.523c-.649-1.234-2.368-4.343-6.352-4.343-3.437 0-5.61 1.652-5.61 4.246 0 2.007 1.493 3.207 6.259 4.894 4.503 1.617 7.875 3.274 7.875 7.227 0 4.113-3.403 6.902-8.364 6.902-5.605 0-8.261-4.309-8.847-5.996zm0 0"/>
    </g>
</svg>
